<svg xmlns="http://www.w3.org/2000/svg" height="16" width="18" viewBox="0 0 576 512"><!--!Font Awesome Free 6.5.1 by @fontawesome - https://fontawesome.com License - https://fontawesome.com/license/free Copyright 2024 Fonticons, Inc.--><path opacity="1" fill="#1E3050" d="M574.1 280.4L528.8 98.7c-5.9-23.7-21.6-44.1-43-55.8-21.4-11.7-47-14.1-70.2-6.3l-15.3 5.1c-8.4 2.8-12.9 11.9-10.1 20.2l5.1 15.2c2.8 8.4 11.9 12.9 20.2 10.1l13.2-4.4c10.9-3.6 23-3.6 33.2 1.7 10.3 5.4 17.6 14.6 20.4 25.8l38.5 153.8c-22.2-6.8-49.8-12.5-81.2-12.5-34.8 0-74 7-114.9 26.7h-73.2c-40.9-19.7-80.1-26.8-114.9-26.8-31.4 0-59 5.7-81.2 12.5l38.5-153.8c2.8-11.3 10.1-20.5 20.4-25.8 10.2-5.3 22.3-5.4 33.2-1.7l13.2 4.4c8.4 2.8 17.4-1.7 20.2-10.1l5.1-15.2c2.8-8.4-1.7-17.5-10.1-20.2l-15.3-5.1c-23.2-7.8-48.8-5.4-70.2 6.3-21.4 11.8-37.1 32.1-43 55.8L1.9 280.4A64.2 64.2 0 0 0 0 295.9v70.3C0 429 51.6 480 115.2 480h37.1c60.3 0 110.4-45.9 114.9-105.4l2.9-38.6h35.8l2.9 38.6C313.3 434.1 363.4 480 423.7 480h37.1c63.6 0 115.2-51 115.2-113.9v-70.3c0-5.2-.6-10.4-1.9-15.5zm-370.7 89.4c-2 25.9-24.4 46.2-51.1 46.2H115.2C87 416 64 393.6 64 366.1v-37.5c18.1-6.5 43.4-12.9 72.6-12.9 23.9 0 47.3 4.3 69.9 12.9l-3.1 41.2zM512 366.1c0 27.5-23 49.9-51.2 49.9h-37.1c-26.7 0-49.1-20.3-51.1-46.2l-3.1-41.2c22.7-8.6 46.1-12.9 70-12.9 29.1 0 54.4 6.4 72.6 12.9v37.5z"/></svg>